# xmcd
#
# Track frame offsets:
#	150
#	10765
#	25111
#	39709
#	74195
#	83728
#	98556
#	119818
#	137847
#	153397
#	171034
#	190713
#	213768
#	226853
#	240276
#	254769
#	268995
#	280556
#	299394
#
# Disc length: 4221 seconds
#
# Revision: 0
# Processed by: cddbd v1.4PL0 Copyright (c) Steve Scherf et al.
# Submitted via: audiograbber 1.81.02
#
DISCID=0d107b13
DTITLE=Willie Nelson - 1993-09-03 - Ras G vaults #3 - Disc 1
DYEAR=1900
DGENRE=
TTITLE0=Whisky River
TTITLE1=Stay a Little Longer
TTITLE2=Good Hearted Woman
TTITLE3=Time Slips Away
TTITLE4=Bobby Nelson Piano jam
TTITLE5=Old Flames
TTITLE6=Me and Paul
TTITLE7=Workingmans Blues
TTITLE8=Help Me Make it Through the Night
TTITLE9=Me and Bobby McGee
TTITLE10=Loving You is Easy
TTITLE11=Blood Mary Morning
TTITLE12=Blue Eyes Crying
TTITLE13=Instumental
TTITLE14=?
TTITLE15=Georgia on My Mind
TTITLE16=Why Not Take All of Me
TTITLE17=Stardust Melody
TTITLE18=Dont Let Your Babies Grow Up To Be Cowboys
EXTD=
EXTT0=
EXTT1=
EXTT2=
EXTT3=
EXTT4=
EXTT5=
EXTT6=
EXTT7=
EXTT8=
EXTT9=
EXTT10=
EXTT11=
EXTT12=
EXTT13=
EXTT14=
EXTT15=
EXTT16=
EXTT17=
EXTT18=
PLAYORDER=
